<svg xmlns="http://www.w3.org/2000/svg" viewBox="0 0 112.11 113.96"><defs><style>.cls-1{fill:none;stroke:#d74600;stroke-miterlimit:10;stroke-width:2.83px;}</style></defs><g id="Layer_2" data-name="Layer 2"><g id="Layer_1-2" data-name="Layer 1"><path class="cls-1" d="M31.56,91.78c-7.9,0-19.52.58-23.4.58-2.87,0-3.56-2.16-3.1-4.31.64-3,2.13-4.6,5-4.6.72,0,2.12.14,2.55.14,3.6,0,4.83-2.44,6.56-9.19,1.81-7.19,4.26-16.67,6.48-27.15,2.29-10.78,4.5-21.84,5.91-31.18.44-2.73.59-5.46-3-5.46-1.15,0-2.39.43-3.11.43-2.73,0-3.45-2-2.9-4.59s2.7-4.6,4.85-4.6c7.19,0,14.16.29,22.21.29,9.91,0,28.17-.72,37.07-.72,17.53,0,26.48,5.89,23.42,20.25-2.77,13.08-8.94,19.11-27,19.69-2,0-3.38,1-3.71,2.58s1,2.16,2.7,2.16C101.71,47,107,52,103.64,67.65,100.22,83.74,90.48,92.36,62.9,92.36,53.71,92.36,40.61,91.78,31.56,91.78ZM49.05,74.4c-.86,6.75-.23,9.19,7.24,9.19,11.2,0,14.46-5.17,16.53-14.94,3.3-15.51.29-20.25-10.49-20.25-6.46,0-8.75,1.29-9.57,5.17C51.23,60.75,49.72,69.23,49.05,74.4ZM63.76,39.63c11.07,0,15-5.17,17.24-15.51,2.26-10.64-.55-13.65-9.89-13.65-6.18,0-8.77,2.73-9.67,5.6a146,146,0,0,0-4.32,17C56.15,37.62,57.73,39.63,63.76,39.63Z"/><path class="cls-1" d="M90.36,112.52s-50.23-.39-67.21-.39c-4.76,0-19,.41-19,.41-1.84,0-3-1.28-2.62-2.86L2.4,106a4.22,4.22,0,0,1,4-2.87c12.27,0,38.4.41,58.84.41,15.76,0,28.13-.41,28.13-.41,1.83,0,3,1.28,2.61,2.87l-.91,3.69C94.71,111.26,92.2,112.52,90.36,112.52Z"/></g></g></svg>