<svg xmlns="http://www.w3.org/2000/svg" viewBox="0 0 190.97 218.19"><defs><style>.cls-1{fill:#ffcbcb;stroke:#d74600;}.cls-1,.cls-2{stroke-miterlimit:10;stroke-width:7.09px;}.cls-2{fill:none;stroke:#6555ff;}</style></defs><g id="Layer_2" data-name="Layer 2"><g id="Layer_1-2" data-name="Layer 1"><path class="cls-1" d="M166.38,136.47,100.76,136a26.4,26.4,0,0,1,20.93,22.8c0-.08,0-.17,0-.25,0,.08,0,.17,0,.25,0,.35.07.7.1,1.05,0,.16,0,.32,0,.47,0,.51,0,1,0,1.54h0a26.39,26.39,0,0,1-52.77,0h0c0-.51,0-1,.05-1.53l0-.48c0-.34.06-.68.1-1,0-.09,0-.17,0-.25,0,.08,0,.16,0,.25a26.39,26.39,0,0,1,21.33-22.9l-64.9-.46A106.28,106.28,0,0,0,4.09,161.87a105.53,105.53,0,0,0,182.79,0A106.24,106.24,0,0,0,166.38,136.47Z"/><path class="cls-1" d="M165.27,82.7H98.48a26.39,26.39,0,1,1-6,0H25.71A106.28,106.28,0,0,0,4.09,109.09a105.52,105.52,0,0,0,182.79,0A106.24,106.24,0,0,0,165.27,82.7Z"/><path class="cls-1" d="M95.49,3.54A105.51,105.51,0,0,0,4.09,56.32a105.8,105.8,0,0,0,65,49.44,105.26,105.26,0,0,0,26.39,3.33,105.47,105.47,0,0,0,91.39-52.77A105.48,105.48,0,0,0,95.49,3.54Zm0,79.17a26.39,26.39,0,1,1,26.38-26.39A26.39,26.39,0,0,1,95.49,82.71Z"/><circle class="cls-2" cx="95.49" cy="56.32" r="26.39"/><path class="cls-1" d="M69.15,160.34l0-.48Z"/><path class="cls-1" d="M121.79,159.86c0,.16,0,.32,0,.47C121.82,160.18,121.8,160,121.79,159.86Z"/><path class="cls-1" d="M95.49,188.25A26.38,26.38,0,0,1,69.1,161.87h0a26.39,26.39,0,0,0,52.77,0h0A26.38,26.38,0,0,1,95.49,188.25Z"/><path class="cls-1" d="M69.18,159.86c0-.34.06-.68.1-1C69.24,159.18,69.21,159.52,69.18,159.86Z"/><path class="cls-1" d="M121.69,158.81c0,.35.07.7.1,1.05C121.76,159.51,121.73,159.16,121.69,158.81Z"/><path class="cls-1" d="M69.1,161.87h0c0-.51,0-1,.05-1.53C69.12,160.85,69.1,161.36,69.1,161.87Z"/><path class="cls-1" d="M121.87,161.87c0-.52,0-1,0-1.54,0,.51,0,1,0,1.54Z"/><path class="cls-2" d="M95.49,82.53a27,27,0,0,0-3,.17h6A26.83,26.83,0,0,0,95.49,82.53Z"/></g></g></svg>