<svg xmlns="http://www.w3.org/2000/svg" viewBox="0 0 211.9 283.66"><defs><style>.cls-1{fill:none;stroke:#d74600;stroke-miterlimit:10;stroke-width:2.83px;}</style></defs><g id="Layer_2" data-name="Layer 2"><g id="Layer_1-2" data-name="Layer 1"><path class="cls-1" d="M26.52,86.59c-7.45,0-18.4.54-22,.54-2.71,0-3.36-2-2.93-4.06.6-2.84,2-4.33,4.71-4.33.68,0,2,.13,2.41.13,3.39,0,4.55-2.3,6.18-8.66,1.71-6.77,4-15.71,6.11-25.6C23.11,34.46,25.19,24,26.52,15.23c.41-2.57.55-5.15-2.83-5.15-1.08,0-2.25.41-2.93.41-2.57,0-3.25-1.9-2.74-4.33s2.55-4.34,4.58-4.34c6.77,0,13.35.27,20.93.27,9.35,0,26.55-.67,35-.67,16.52,0,25,5.55,22.07,19.09-2.62,12.32-8.43,18-25.47,18.55-1.9,0-3.18.95-3.5,2.44s.92,2,2.55,2c18.51.81,23.46,5.55,20.33,20.31C91.23,79,82.06,87.13,56.06,87.13,47.39,87.13,35.05,86.59,26.52,86.59ZM43,70.21c-.81,6.36-.22,8.66,6.83,8.66,10.56,0,13.63-4.87,15.58-14.08,3.11-14.62.27-19.09-9.89-19.09-6.09,0-8.24,1.22-9,4.87C45.06,57.34,43.63,65.33,43,70.21ZM56.87,37.44c10.43,0,14.17-4.88,16.25-14.63C75.25,12.79,72.6,10,63.8,10c-5.82,0-8.27,2.57-9.11,5.28a136,136,0,0,0-4.08,16C49.69,35.54,51.19,37.44,56.87,37.44Z"/><path class="cls-1" d="M130.27,88.49c-28,0-35.34-13.41-30.85-34.53,6.51-30.61,24.63-42,47.11-42S182.16,24,175.8,54C171.45,74.41,158.3,88.49,130.27,88.49ZM145.11,20c-6.64,0-11.38,4.47-17,31-4.46,21-2.4,27.22,4.64,27.22s11-5.28,15.67-27.22C154.16,23.9,151.33,20,145.11,20Z"/><path class="cls-1" d="M59.87,197.35A4.32,4.32,0,0,1,64.24,194c3.66,0,6.71,2.85,10.64,2.85,2.71,0,4.11-1.49,4.39-2.85.61-2.84-2.72-5-9.49-5-11.65,0-26,8.4-39.84,8.4-12.32,0-16.64-5.82-13.81-19.09C18.74,165.93,26.85,159,37.28,159h3a3.3,3.3,0,0,0,3.37-2.44,2.48,2.48,0,0,0-2.35-3c-8.51-1.35-13.23-7.85-10.46-20.85C34.58,115,48.75,107.57,69.2,107.57c6.91,0,13.45,1.08,17.1,1.08,2.44,0,3.18-1,3.47-2.3s-.54-1.9-3-2.44c-5.73-1.08-9.38-3.65-8-9.88,1.12-5.28,6.77-8.94,16.65-8.94,10.16,0,15.82,6.5,13.86,15.71-1.35,6.36-5.64,11.24-11.32,11.24-1.63,0-3.57-.41-4-.41-2,0-2.74.81-3,2s.48,2.17,2.48,3c4.12,1.63,9.54,6.1,6.92,18.42-3.83,18-14.82,26.4-40,26.4-17.47,0-23,3.12-24.13,8.4-.52,2.44.38,4.6,4.3,4.6,8.94,0,27-7.44,38.55-7.44,12.73,0,17.72,6.5,15.53,16.79-2.76,13-9.16,19.5-22.83,19.5C62.39,203.31,59.12,200.87,59.87,197.35Zm-3.57-67.3c-2.51,11.78-4.19,22.88,6,22.88,7.58,0,10.71-3.25,14-19,3.05-14.36.72-18.69-6.46-18.69C63.63,115.29,59.15,116.64,56.3,130.05Z"/><path class="cls-1" d="M132.73,183.94c-28,0-35.34-13.4-30.85-34.53,6.51-30.6,24.63-42,47.11-42s35.62,12.06,29.26,42C173.91,169.86,160.76,183.94,132.73,183.94Zm14.83-68.52c-6.63,0-11.37,4.47-17,31-4.46,21-2.4,27.22,4.65,27.22,6.9,0,11-5.28,15.67-27.22C156.61,119.35,153.79,115.42,147.56,115.42Z"/><path class="cls-1" d="M94.66,282.24c-15.84,0-19.19-7.85-16.13-22.21,1.32-6.23,4.57-17.06,6.56-26.4.89-4.2,1.81-8.53,2.6-13.54.56-3.25-.34-4.74-2-4.74-1.22,0-2.63.27-3.31.27-2.43,0-2.65-2.17-2.22-4.2a4.92,4.92,0,0,1,4.31-4.33c9.31-1.76,19.31-8.67,26.22-15.71,1.89-1.9,3.29-2.71,5.32-2.71s3.37,1.35,3,3.11c-.31,1.49-1.7,6.1-2.88,11.65-.72,3.39,1.17,4.06,4.82,4.06,1.49,0,5.64-.4,8.08-.4,2.84,0,3.6,2.16,3.11,4.46-.54,2.58-2.22,4.74-5.07,4.74-3.38,0-7.6-.54-10.58-.54s-4.19,1.22-4.7,3.66c-3.07,13.13-6.07,26-7.78,34.66-2,9.89.43,11.38,4,11.38s5.46-4.06,6.21-7.58-.88-7.32-.1-11a5.21,5.21,0,0,1,5-4.47c3.66,0,5,2.44,2.79,13C118,274,110.37,282.24,94.66,282.24Z"/><path class="cls-1" d="M199.64,230.51c-2.33,11-5.46,23.16-6.3,27.09-1,4.46.22,6.63,2.92,6.63,3.39,0,5-2.57,5.86-6.5.69-3.25-.85-8.12-.25-11,.49-2.3,2.14-4.33,4.85-4.33,4.06,0,4.44,2.71,2.16,13.41-4.23,19.9-10.89,26.4-24,26.4-11.37,0-12.89-6.23-12.76-14.49,0-2.17-.26-3.25-1.75-3.25-1.76,0-2.53,1.08-3.26,3.25-2.45,7.72-11.07,14.49-25.83,14.49s-18.56-7.58-16.23-18.55c3.22-15.17,15.1-18.82,28.61-20.58,19.24-2.58,21.34-4.2,23.93-16.39C179.61,217.11,175,214,165,214c-5.69,0-6.85,1.63-7.22,3.39-.26,1.22.43,2.44,2.75,3,3.48.81,5.92,2.7,4.91,7.44-1.41,6.64-7.46,10.3-17.08,10.3-10,0-14.14-4.2-12.29-12.87,2.24-10.56,14.3-19.5,39.35-19.5S202.81,215.62,199.64,230.51ZM149,257.46c-1.13,5.28,2.51,6.64,7.12,6.64A16.83,16.83,0,0,0,172.27,251c.46-2.17,0-4.06-2.65-4.06C159.05,246.9,150.25,251.37,149,257.46Zm61.29-71.77c1.07-5-1.57-8.53-7.39-8.53-13.14,0-23.82,14-33.3,14-4.88,0-6.8-1.76-9.11-1.76-2.7,0-4.37,1.49-4.95,4.19-.75,3.53,1.45,5.29,10.79,5.29C193.78,198.83,208,196.25,210.25,185.69Z"/></g></g></svg>