<svg xmlns="http://www.w3.org/2000/svg" viewBox="0 0 467.2 127.12"><defs><style>.cls-1{fill:none;stroke:#d74600;stroke-miterlimit:10;stroke-width:2.83px;}</style></defs><g id="Layer_2" data-name="Layer 2"><g id="Layer_1-2" data-name="Layer 1"><path class="cls-1" d="M26.49,104.47c-7.44,0-18.38.54-22,.54-2.7,0-3.35-2-2.92-4.06.6-2.84,2-4.33,4.71-4.33.67,0,2,.14,2.4.14,3.38,0,4.55-2.3,6.17-8.66,1.71-6.76,4-15.68,6.11-25.56C23.08,52.4,25.16,42,26.49,33.2c.41-2.57.55-5.14-2.83-5.14-1.08,0-2.25.4-2.93.4-2.57,0-3.25-1.89-2.73-4.32s2.54-4.33,4.57-4.33c6.76,0,13.33.27,20.91.27,9.33,0,26.51-.68,34.9-.68,16.49,0,24.92,5.55,22,19.07C97.81,50.78,92,56.46,75,57a3.24,3.24,0,0,0-3.49,2.43c-.29,1.36.92,2,2.54,2,18.49.81,23.44,5.55,20.3,20.29C91.12,96.89,82,105,56,105,47.33,105,35,104.47,26.49,104.47ZM43,88.1c-.81,6.36-.22,8.66,6.81,8.66,10.55,0,13.61-4.87,15.57-14.07,3.1-14.6.27-19.06-9.88-19.06-6.08,0-8.24,1.21-9,4.86C45,75.26,43.58,83.23,43,88.1ZM56.8,55.38C67.21,55.38,71,50.51,73,40.77c2.13-10-.51-12.85-9.3-12.85-5.82,0-8.26,2.57-9.1,5.28a135.1,135.1,0,0,0-4.07,16C49.63,53.48,51.12,55.38,56.8,55.38Z"/><path class="cls-1" d="M130.1,106.36c-28,0-35.29-13.39-30.81-34.48C105.79,41.31,123.89,30,146.34,30s35.58,12,29.23,41.93C171.23,92.3,158.09,106.36,130.1,106.36Zm14.82-68.43c-6.63,0-11.37,4.46-17,31-4.46,21-2.4,27.18,4.64,27.18,6.89,0,11-5.27,15.65-27.18C154,41.85,151.14,37.93,144.92,37.93Z"/><path class="cls-1" d="M211.89,119.75a4.32,4.32,0,0,1,4.37-3.38c3.65,0,6.7,2.84,10.62,2.84,2.71,0,4.1-1.49,4.39-2.84.61-2.84-2.72-5-9.48-5-11.63,0-26,8.39-39.79,8.39-12.3,0-16.61-5.82-13.79-19.07,2.61-12.31,10.7-19.2,21.12-19.2h3A3.28,3.28,0,0,0,195.66,79a2.47,2.47,0,0,0-2.34-3c-8.5-1.35-13.21-7.85-10.45-20.83,3.76-17.71,17.92-25.15,38.34-25.15,6.9,0,13.43,1.08,17.08,1.08,2.44,0,3.18-1,3.47-2.3s-.55-1.89-3-2.43c-5.72-1.09-9.37-3.66-8-9.88,1.12-5.27,6.77-8.92,16.64-8.92,10.14,0,15.8,6.49,13.84,15.69-1.35,6.35-5.63,11.22-11.31,11.22-1.62,0-3.56-.41-4-.41-2,0-2.74.82-3,2s.49,2.17,2.48,3c4.11,1.62,9.52,6.08,6.91,18.39-3.83,18-14.81,26.37-40,26.37-17.44,0-23,3.11-24.09,8.39-.52,2.43.37,4.59,4.29,4.59,8.93,0,27-7.43,38.5-7.43,12.71,0,17.69,6.49,15.51,16.76-2.76,13-9.15,19.48-22.81,19.48C214.41,125.7,211.14,123.26,211.89,119.75Zm-3.56-67.21c-2.5,11.76-4.19,22.85,6,22.85,7.57,0,10.69-3.24,14-18.93,3.05-14.34.72-18.66-6.45-18.66C215.65,37.8,211.17,39.15,208.33,52.54Z"/><path class="cls-1" d="M284.65,106.36c-28,0-35.29-13.39-30.8-34.48,6.49-30.57,24.6-41.93,47-41.93s35.57,12,29.22,41.93C325.78,92.3,312.65,106.36,284.65,106.36Zm14.82-68.43c-6.63,0-11.36,4.46-17,31-4.45,21-2.39,27.18,4.64,27.18s11-5.27,15.65-27.18C308.51,41.85,305.69,37.93,299.47,37.93Z"/><path class="cls-1" d="M350.11,106.36c-15.82,0-19.16-7.84-16.11-22.18,1.32-6.22,4.57-17,6.55-26.37.89-4.19,1.81-8.52,2.61-13.52.55-3.25-.35-4.74-2-4.74-1.22,0-2.63.27-3.3.27-2.44,0-2.65-2.16-2.22-4.19A4.93,4.93,0,0,1,340,31.3c9.3-1.75,19.28-8.65,26.19-15.68,1.89-1.9,3.28-2.71,5.3-2.71,2.17,0,3.37,1.35,3,3.11-.31,1.49-1.69,6.09-2.87,11.63-.72,3.38,1.16,4.06,4.81,4.06,1.49,0,5.63-.41,8.07-.41,2.84,0,3.6,2.17,3.11,4.47-.55,2.57-2.23,4.73-5.07,4.73-3.38,0-7.59-.54-10.56-.54s-4.18,1.22-4.7,3.65c-3.06,13.12-6.06,26-7.77,34.62-2,9.87.43,11.36,3.94,11.36s5.47-4.06,6.21-7.57-.88-7.3-.1-11a5.2,5.2,0,0,1,5-4.46c3.65,0,5,2.44,2.79,13C373.37,98.11,365.8,106.36,350.11,106.36Z"/><path class="cls-1" d="M455,54.7c-2.33,11-5.46,23.13-6.29,27.05-.95,4.46.21,6.62,2.92,6.62,3.38,0,5-2.57,5.84-6.49.69-3.24-.85-8.11-.24-10.95.49-2.3,2.13-4.33,4.84-4.33,4.06,0,4.43,2.71,2.16,13.39-4.23,19.88-10.88,26.37-24,26.37-11.36,0-12.88-6.22-12.75-14.47.06-2.16-.25-3.25-1.74-3.25-1.76,0-2.53,1.09-3.26,3.25-2.45,7.71-11.06,14.47-25.8,14.47s-18.54-7.57-16.21-18.53C383.65,72.69,395.52,69,409,67.28c19.21-2.57,21.31-4.2,23.9-16.37,2-9.6-2.58-12.71-12.58-12.71-5.68,0-6.84,1.62-7.21,3.38-.26,1.22.43,2.44,2.75,3,3.47.81,5.91,2.7,4.91,7.44-1.41,6.62-7.46,10.27-17.06,10.27-10,0-14.12-4.19-12.28-12.84C393.68,38.88,405.72,30,430.74,30S458.12,39.82,455,54.7ZM404.34,81.61c-1.12,5.28,2.51,6.63,7.11,6.63a16.81,16.81,0,0,0,16.18-13.12c.46-2.16.05-4.06-2.66-4.06C414.42,71.06,405.63,75.53,404.34,81.61ZM465.55,9.94c1.07-5-1.57-8.52-7.38-8.52-13.12,0-23.79,13.93-33.25,13.93-4.87,0-6.8-1.76-9.1-1.76-2.7,0-4.37,1.49-4.95,4.19-.74,3.52,1.45,5.28,10.78,5.28C449.11,23.06,463.31,20.49,465.55,9.94Z"/></g></g></svg>