<svg xmlns="http://www.w3.org/2000/svg" viewBox="0 0 173.55 233.11"><defs><style>.cls-1{fill:#d74600;}</style></defs><g id="Layer_2" data-name="Layer 2"><g id="Layer_1-2" data-name="Layer 1"><path class="cls-1" d="M20.84,70.7c-6.18,0-15.27.45-18.31.45C.28,71.15-.26,69.47.1,67.78.6,65.42,1.77,64.19,4,64.19c.57,0,1.67.11,2,.11,2.81,0,3.78-1.91,5.13-7.2,1.42-5.62,3.33-13,5.08-21.24,1.79-8.43,3.52-17.09,4.62-24.39.34-2.14.46-4.28-2.35-4.28-.9,0-1.87.34-2.43.34-2.14,0-2.7-1.57-2.27-3.6S15.9.34,17.58.34C23.21.34,28.67.56,35,.56,42.72.56,57,0,64,0,77.68,0,84.68,4.61,82.29,15.85c-2.17,10.23-7,15-21.14,15.4a2.7,2.7,0,0,0-2.91,2C58,34.4,59,35,60.36,35c15.37.67,19.48,4.61,16.87,16.86C74.56,64.41,66.94,71.15,45.36,71.15,38.16,71.15,27.92,70.7,20.84,70.7ZM34.52,57.1c-.67,5.29-.18,7.2,5.66,7.2,8.77,0,11.32-4,12.94-11.69,2.58-12.14.22-15.85-8.21-15.85-5,0-6.84,1-7.49,4C36.23,46.42,35,53.06,34.52,57.1ZM46,29.9c8.66,0,11.77-4,13.49-12.14,1.77-8.32-.43-10.68-7.74-10.68-4.83,0-6.86,2.14-7.56,4.39a113.38,113.38,0,0,0-3.38,13.26C40.07,28.33,41.31,29.9,46,29.9Z"/><path class="cls-1" d="M107,72.28c-23.27,0-29.33-11.13-25.6-28.67,5.4-25.4,20.44-34.84,39.1-34.84s29.57,10,24.29,34.84C141.15,60.59,130.23,72.28,107,72.28ZM119.28,15.4c-5.51,0-9.45,3.71-14.13,25.74-3.7,17.42-2,22.6,3.85,22.6s9.14-4.39,13-22.6C126.79,18.66,124.45,15.4,119.28,15.4Z"/><path class="cls-1" d="M48.52,162.64a3.59,3.59,0,0,1,3.63-2.81c3,0,5.57,2.36,8.83,2.36,2.25,0,3.41-1.23,3.65-2.36.5-2.36-2.26-4.16-7.88-4.16-9.67,0-21.61,7-33.07,7-10.23,0-13.81-4.83-11.47-15.85,2.17-10.22,8.9-16,17.56-16h2.47a2.74,2.74,0,0,0,2.79-2,2.05,2.05,0,0,0-2-2.47c-7.07-1.13-11-6.52-8.68-17.31C27.53,94.3,39.29,88.12,56.27,88.12c5.73,0,11.16.9,14.2.9,2,0,2.64-.79,2.87-1.91s-.45-1.58-2.49-2c-4.75-.9-7.78-3-6.68-8.2.93-4.39,5.62-7.42,13.82-7.42,8.44,0,13.13,5.39,11.51,13-1.12,5.28-4.68,9.33-9.4,9.33-1.35,0-3-.34-3.3-.34-1.69,0-2.28.67-2.5,1.69s.41,1.79,2.06,2.47c3.42,1.35,7.92,5.06,5.75,15.29-3.18,15-12.31,21.92-33.22,21.92-14.5,0-19.09,2.58-20,7-.43,2,.31,3.82,3.57,3.82,7.42,0,22.44-6.19,32-6.19,10.56,0,14.7,5.4,12.89,13.94-2.3,10.79-7.6,16.19-19,16.19C50.62,167.59,47.9,165.57,48.52,162.64Zm-3-55.86c-2.08,9.78-3.48,19,4.95,19,6.3,0,8.89-2.69,11.67-15.73,2.53-11.92.59-15.52-5.36-15.52C51.65,94.52,47.92,95.65,45.56,106.78Z"/><path class="cls-1" d="M109,151.52c-23.27,0-29.33-11.13-25.61-28.67C88.79,97.45,103.84,88,122.5,88s29.57,10,24.29,34.84C143.19,139.83,132.27,151.52,109,151.52Zm12.32-56.88c-5.51,0-9.45,3.71-14.13,25.74-3.7,17.42-2,22.59,3.85,22.59s9.14-4.38,13-22.59C128.83,97.9,126.49,94.64,121.32,94.64Z"/><path class="cls-1" d="M77.4,233.11c-13.15,0-15.92-6.52-13.39-18.43,1.1-5.17,3.8-14.16,5.44-21.92.74-3.49,1.51-7.08,2.17-11.24.46-2.7-.29-3.94-1.64-3.94-1,0-2.18.23-2.74.23-2,0-2.21-1.8-1.85-3.49A4.09,4.09,0,0,1,69,170.73c7.73-1.46,16-7.2,21.76-13,1.58-1.58,2.73-2.25,4.42-2.25s2.79,1.12,2.48,2.58c-.26,1.24-1.41,5.06-2.39,9.67-.6,2.81,1,3.37,4,3.37,1.24,0,4.69-.33,6.71-.33,2.36,0,3,1.8,2.58,3.71-.45,2.13-1.85,3.93-4.21,3.93-2.81,0-6.31-.45-8.78-.45s-3.48,1-3.91,3c-2.54,10.9-5,21.58-6.45,28.77-1.63,8.21.35,9.45,3.28,9.45s4.53-3.38,5.16-6.3-.74-6.07-.09-9.1a4.32,4.32,0,0,1,4.16-3.71c3,0,4.18,2,2.31,10.79C96.73,226.26,90.44,233.11,77.4,233.11Z"/><path class="cls-1" d="M164.55,190.17c-1.94,9.11-4.54,19.23-5.23,22.49-.79,3.7.18,5.5,2.42,5.5,2.81,0,4.17-2.13,4.86-5.39.57-2.7-.7-6.75-.2-9.11a4.16,4.16,0,0,1,4-3.59c3.38,0,3.69,2.24,1.8,11.12-3.51,16.53-9,21.92-19.95,21.92-9.44,0-10.7-5.17-10.59-12,0-1.8-.22-2.7-1.45-2.7-1.46,0-2.1.9-2.71,2.7-2,6.4-9.19,12-21.44,12s-15.41-6.29-13.48-15.4c2.68-12.59,12.54-15.62,23.75-17.08,16-2.14,17.72-3.49,19.87-13.6,1.7-8-2.14-10.57-10.46-10.57-4.72,0-5.68,1.35-6,2.81-.22,1,.36,2,2.28,2.47,2.9.68,4.92,2.25,4.09,6.19-1.18,5.5-6.2,8.54-14.19,8.54-8.31,0-11.73-3.49-10.2-10.68,1.86-8.77,11.87-16.19,32.66-16.19S167.17,177.81,164.55,190.17Zm-42.08,22.37c-.93,4.39,2.09,5.51,5.91,5.51a14,14,0,0,0,13.45-10.9c.38-1.8,0-3.37-2.21-3.37C130.86,203.78,123.55,207.48,122.47,212.54ZM173.35,153c.89-4.16-1.3-7.09-6.13-7.09-10.91,0-19.78,11.58-27.64,11.58-4.05,0-5.65-1.46-7.56-1.46a3.93,3.93,0,0,0-4.12,3.49c-.62,2.92,1.21,4.38,9,4.38C159.68,163.87,171.49,161.73,173.35,153Z"/></g></g></svg>