<svg xmlns="http://www.w3.org/2000/svg" viewBox="0 0 282.4 282.4"><defs><style>.cls-1{fill:#ffcbcb;}.cls-1,.cls-2{stroke:#d74600;}.cls-1,.cls-2,.cls-3{stroke-miterlimit:10;stroke-width:7.09px;}.cls-2,.cls-3{fill:none;}.cls-3{stroke:#6555ff;}</style></defs><g id="Layer_2" data-name="Layer 2"><g id="Layer_1-2" data-name="Layer 1"><path class="cls-1" d="M141.2,53.61a87.59,87.59,0,1,0,87.58,87.59A87.6,87.6,0,0,0,141.2,53.61ZM108.54,122a9.56,9.56,0,1,1,9.56-9.56A9.56,9.56,0,0,1,108.54,122Z"/><path class="cls-2" d="M141.2,3.54a12.52,12.52,0,1,0,0,25"/><path class="cls-2" d="M141.2,53.61a12.52,12.52,0,1,0,0-25"/><path class="cls-2" d="M141.2,228.78a12.52,12.52,0,1,0,0,25"/><path class="cls-2" d="M141.2,278.85a12.52,12.52,0,1,0,0-25"/><path class="cls-2" d="M278.85,141.2a12.52,12.52,0,1,0-25,0"/><path class="cls-2" d="M228.78,141.2a12.52,12.52,0,1,0,25,0"/><path class="cls-2" d="M141.2,3.54a12.52,12.52,0,1,0,0,25"/><path class="cls-2" d="M141.2,53.61a12.52,12.52,0,1,0,0-25"/><path class="cls-2" d="M141.2,228.78a12.52,12.52,0,1,0,0,25"/><path class="cls-2" d="M141.2,278.85a12.52,12.52,0,1,0,0-25"/><path class="cls-2" d="M278.85,141.2a12.52,12.52,0,1,0-25,0"/><path class="cls-2" d="M228.78,141.2a12.52,12.52,0,1,0,25,0"/><path class="cls-2" d="M53.61,141.2a12.52,12.52,0,1,0-25,0"/><path class="cls-2" d="M3.54,141.2a12.52,12.52,0,0,0,25,0"/><path class="cls-2" d="M238.53,43.86a12.52,12.52,0,1,0-17.7,17.7"/><path class="cls-2" d="M203.13,79.27a12.52,12.52,0,1,0,17.7-17.71"/><path class="cls-2" d="M79.27,203.13a12.52,12.52,0,0,0-17.71,17.7"/><path class="cls-2" d="M43.86,238.53a12.52,12.52,0,1,0,17.7-17.7"/><path class="cls-2" d="M238.53,238.53a12.52,12.52,0,0,0-17.7-17.7"/><path class="cls-2" d="M203.13,203.13a12.52,12.52,0,0,0,17.7,17.7"/><path class="cls-2" d="M79.27,79.27A12.52,12.52,0,0,0,61.56,61.56"/><path class="cls-2" d="M43.86,43.86a12.52,12.52,0,0,0,17.7,17.7"/><path class="cls-2" d="M193.92,14a12.52,12.52,0,0,0-9.59,23.13"/><path class="cls-2" d="M174.75,60.29a12.51,12.51,0,0,0,9.58-23.12"/><path class="cls-2" d="M107.65,222.1a12.52,12.52,0,0,0-9.59,23.13"/><path class="cls-2" d="M88.47,268.35a12.52,12.52,0,1,0,9.59-23.12"/><path class="cls-2" d="M268.35,193.92a12.52,12.52,0,0,0-23.12-9.59"/><path class="cls-2" d="M222.1,174.75a12.52,12.52,0,0,0,23.13,9.58"/><path class="cls-2" d="M60.29,107.65a12.52,12.52,0,1,0-23.12-9.59"/><path class="cls-2" d="M14,88.47a12.52,12.52,0,1,0,23.13,9.59"/><path class="cls-2" d="M268.39,88.57a12.52,12.52,0,0,0-23.13,9.57"/><path class="cls-2" d="M222.13,107.71a12.52,12.52,0,1,0,23.13-9.57"/><path class="cls-2" d="M60.27,174.69a12.52,12.52,0,1,0-23.14,9.57"/><path class="cls-2" d="M14,193.83a12.52,12.52,0,0,0,23.13-9.57"/><path class="cls-2" d="M193.83,268.39a12.52,12.52,0,1,0-9.57-23.13"/><path class="cls-2" d="M174.69,222.13a12.52,12.52,0,1,0,9.57,23.13"/><path class="cls-2" d="M107.71,60.27a12.52,12.52,0,0,0-9.57-23.14"/><path class="cls-2" d="M88.57,14a12.52,12.52,0,1,0,9.57,23.13"/><path class="cls-2" d="M98.39,144.47a42.81,42.81,0,0,0,85.62,0"/><path class="cls-3" d="M164.06,112.45a10,10,0,0,0,19.95,0"/></g></g></svg>