<svg xmlns="http://www.w3.org/2000/svg" viewBox="0 0 203.32 218.09"><defs><style>.cls-1{fill:#ffcbcb;stroke:#d74600;}.cls-1,.cls-2{stroke-miterlimit:10;stroke-width:7.09px;}.cls-2{fill:none;stroke:#6555ff;}</style></defs><g id="Layer_2" data-name="Layer 2"><g id="Layer_1-2" data-name="Layer 1"><path class="cls-1" d="M48.58,165.52,20.42,37.3H3.54V214.54H106.93a59,59,0,0,0,48.54-25.38"/><path class="cls-1" d="M58.93,159.31,37.3,20.42H20.42V197.66H123.81a59,59,0,0,0,49.36-26.59"/><path class="cls-1" d="M199.77,62.62A59.08,59.08,0,0,0,140.69,3.54H37.3V180.78H140.69a59.07,59.07,0,0,0,51.16-88.62A58.76,58.76,0,0,0,199.77,62.62Zm-59.08,73.85H81.61V106.93h59.08a14.77,14.77,0,1,1,0,29.54Zm0-59.08H81.61V47.85h59.08a14.77,14.77,0,1,1,0,29.54Z"/><path class="cls-2" d="M140.69,136.47H81.61V106.93h59.08a14.77,14.77,0,1,1,0,29.54Z"/><path class="cls-2" d="M140.69,77.39H81.61V47.85h59.08a14.77,14.77,0,1,1,0,29.54Z"/></g></g></svg>