<svg xmlns="http://www.w3.org/2000/svg" viewBox="0 0 219.79 219.79"><defs><style>.cls-1{fill:#ffcbcb;}.cls-1,.cls-2{stroke:#d74600;}.cls-1,.cls-2,.cls-3{stroke-miterlimit:10;stroke-width:7.09px;}.cls-2,.cls-3{fill:none;}.cls-3{stroke:#6555ff;}</style></defs><g id="Layer_2" data-name="Layer 2"><g id="Layer_1-2" data-name="Layer 1"><path class="cls-1" d="M40.92,64.93A82.34,82.34,0,1,0,155.4,178"/><circle class="cls-2" cx="133.92" cy="85.87" r="82.33"/><path class="cls-1" d="M64.94,40.91A82.34,82.34,0,1,0,179.37,154.09"/><path class="cls-1" d="M133.92,3.54a82.33,82.33,0,1,0,82.33,82.33A82.33,82.33,0,0,0,133.92,3.54ZM103.05,77.42a9.38,9.38,0,1,1,9.38-9.37A9.38,9.38,0,0,1,103.05,77.42Zm61.74,0a9.38,9.38,0,1,1,9.37-9.37A9.38,9.38,0,0,1,164.79,77.42Z"/><path class="cls-3" d="M93.68,98.15a40.24,40.24,0,0,0,80.48,0"/></g></g></svg>